<svg xmlns="http://www.w3.org/2000/svg" width="16.333" height="15.032" viewBox="0 0 16.333 15.032">
  <path id="Path_2721" data-name="Path 2721" d="M408.949,460.376q-2.524,0-5.047,0a3.578,3.578,0,0,1-.477-.03c-.189-.026-.249-.126-.194-.309a1.759,1.759,0,0,1,.121-.294c.513-.991,1.032-1.98,1.54-2.974a.289.289,0,0,1,.308-.157l2.992-.03c.173,0,.346,0,.518-.009.3-.009.3-.011.188-.276q-.958-2.342-1.917-4.683a4.27,4.27,0,0,0-.255-.518c-.217-.373-.386-.378-.619-.022a3.726,3.726,0,0,0-.234.416c-1.34,2.776-2.7,5.543-3.98,8.348a.762.762,0,0,1-.8.514c-.844-.022-1.689-.022-2.533-.035-.314,0-.346-.056-.214-.339q1.279-2.735,2.561-5.468,1.681-3.581,3.367-7.161a5.392,5.392,0,0,1,.853-1.364,1.821,1.821,0,0,1,1-.608,1.637,1.637,0,0,1,1.523.5,5,5,0,0,1,.983,1.513q1.8,3.835,3.591,7.67c.724,1.539,1.423,3.09,2.188,4.61a3.505,3.505,0,0,1,.17.424c.049.142,0,.237-.157.254a3.509,3.509,0,0,1-.377.024Q411.5,460.378,408.949,460.376Z" transform="translate(-398.276 -445.344)" fill="#02afee"/>
</svg>
