<svg xmlns="http://www.w3.org/2000/svg" width="16.832" height="16.934" viewBox="0 0 16.832 16.934">
  <g id="Group_118" data-name="Group 118" transform="translate(0.25 0.326)">
    <path id="Path_395" data-name="Path 395" d="M23.122,34.271l2.023-2.023a1.712,1.712,0,0,1,2.529,0l.089.089c.357.327.714.684,1.041,1.041l.179-.089c.149-.089.327-.149.446-.238a12.806,12.806,0,0,0,3.005-2.737,6.061,6.061,0,0,0,.982-1.547l-.893-.893-.238-.238a1.7,1.7,0,0,1,0-2.559l.684-.684.3-.3h0l.327-.327.684-.684a1.712,1.712,0,0,1,2.529,0l.506.506c.238.238.476.506.744.744a2.616,2.616,0,0,1,.8,1.726,6.272,6.272,0,0,1-.476,2.737,16.086,16.086,0,0,1-2.8,4.672,17.319,17.319,0,0,1-5.713,4.463,8.528,8.528,0,0,1-3.273.952h-.238a2.608,2.608,0,0,1-2.113-.922c-.238-.268-.476-.476-.714-.744l-.387-.387A1.68,1.68,0,0,1,23.122,34.271Zm.744,1.815.387.387a6.623,6.623,0,0,1,.774.8,1.767,1.767,0,0,0,1.518.565,8.3,8.3,0,0,0,2.886-.833,16.713,16.713,0,0,0,5.386-4.2,15.237,15.237,0,0,0,2.618-4.344,5.362,5.362,0,0,0,.417-2.291,1.546,1.546,0,0,0-.476-1.041c-.268-.238-.506-.506-.774-.744l-.506-.506a.669.669,0,0,0-1.071,0l-.684.684-.327.327-.3.3-.684.684a.667.667,0,0,0,0,1.1l.238.238c.327.327.655.655,1.012.982a.76.76,0,0,1,.179.893,8.734,8.734,0,0,1-1.19,1.934A13.269,13.269,0,0,1,30,34a4.813,4.813,0,0,1-.536.3,2.767,2.767,0,0,0-.3.149.821.821,0,0,1-.982-.149l-1.16-1.16-.089-.089a.675.675,0,0,0-1.041,0c-.655.655-1.339,1.339-2.023,1.994A.64.64,0,0,0,23.866,36.086Z" transform="translate(-22.546 -22.525)" fill="#02afee" stroke="#02afee" stroke-width="0.5"/>
  </g>
</svg>
