<svg xmlns="http://www.w3.org/2000/svg" width="28.655" height="35.281" viewBox="0 0 28.655 35.281">
  <g id="delete" transform="translate(0 0)">
    <path id="Path_3628" data-name="Path 3628" d="M223.224,154.7a.826.826,0,0,0-.826.826v15.616a.826.826,0,1,0,1.653,0V155.529A.826.826,0,0,0,223.224,154.7Zm0,0" transform="translate(-204.022 -141.92)" fill="#8a8a8a"/>
    <path id="Path_3629" data-name="Path 3629" d="M105.224,154.7a.826.826,0,0,0-.826.826v15.616a.826.826,0,1,0,1.653,0V155.529A.826.826,0,0,0,105.224,154.7Zm0,0" transform="translate(-95.772 -141.92)" fill="#8a8a8a"/>
    <path id="Path_3630" data-name="Path 3630" d="M2.343,10.5V30.859A4.559,4.559,0,0,0,3.555,34,4.069,4.069,0,0,0,6.508,35.28H22.141A4.068,4.068,0,0,0,25.093,34,4.559,4.559,0,0,0,26.3,30.859V10.5A3.156,3.156,0,0,0,25.5,4.3h-4.23V3.262A3.246,3.246,0,0,0,17.993,0H10.656A3.246,3.246,0,0,0,7.384,3.262V4.3H3.153a3.156,3.156,0,0,0-.81,6.207Zm19.8,23.125H6.508A2.617,2.617,0,0,1,4,30.859V10.575H24.652V30.859a2.617,2.617,0,0,1-2.512,2.768ZM9.036,3.262a1.592,1.592,0,0,1,1.62-1.611h7.337a1.592,1.592,0,0,1,1.62,1.611V4.3H9.036ZM3.153,5.948H25.5a1.487,1.487,0,0,1,0,2.975H3.153a1.487,1.487,0,0,1,0-2.975Zm0,0" transform="translate(0.003 0.002)" fill="#8a8a8a"/>
    <path id="Path_3631" data-name="Path 3631" d="M164.224,154.7a.826.826,0,0,0-.826.826v15.616a.826.826,0,1,0,1.653,0V155.529A.826.826,0,0,0,164.224,154.7Zm0,0" transform="translate(-149.897 -141.92)" fill="#8a8a8a"/>
  </g>
</svg>
