<svg xmlns="http://www.w3.org/2000/svg" width="32.763" height="32.599" viewBox="0 0 32.763 32.599">
  <g id="edit" transform="translate(0 0)">
    <path id="Path_3632" data-name="Path 3632" d="M30.239,56.455a.816.816,0,0,0-.816.816v7.245a2.45,2.45,0,0,1-2.448,2.448H4.08a2.45,2.45,0,0,1-2.448-2.448V43.252A2.451,2.451,0,0,1,4.08,40.8h7.245a.816.816,0,0,0,0-1.632H4.08A4.084,4.084,0,0,0,0,43.252V64.516A4.084,4.084,0,0,0,4.08,68.6h22.9a4.084,4.084,0,0,0,4.08-4.08V57.271a.816.816,0,0,0-.816-.816Zm0,0" transform="translate(0 -35.997)" fill="#8a8a8a"/>
    <path id="Path_3633" data-name="Path 3633" d="M130.094,1.336a3.672,3.672,0,0,0-5.193,0L110.344,15.894a.816.816,0,0,0-.209.359l-1.914,6.911a.816.816,0,0,0,1,1l6.911-1.915a.816.816,0,0,0,.359-.209L131.052,7.487a3.676,3.676,0,0,0,0-5.193ZM112.122,16.424,124.036,4.51l3.842,3.842L115.964,20.267Zm-.768,1.54,3.07,3.07-4.246,1.176ZM129.9,6.333l-.865.865L125.19,3.355l.866-.865a2.04,2.04,0,0,1,2.885,0l.958.957A2.043,2.043,0,0,1,129.9,6.333Zm0,0" transform="translate(-99.362 -0.261)" fill="#8a8a8a"/>
  </g>
</svg>
