<svg xmlns="http://www.w3.org/2000/svg" width="16.168" height="16.716" viewBox="0 0 16.168 16.716">
  <g id="noun_filter_333564" transform="translate(-50.278 -48.358)">
    <path id="Path_2724" data-name="Path 2724" d="M65.245,48.366l-7.008-.008-6.761.008a1.2,1.2,0,0,0-1.2,1.2v.423a1.372,1.372,0,0,0,.5,1.046l5.36,4.319V63.94a1.109,1.109,0,0,0,1.108,1.134,1.152,1.152,0,0,0,.788-.32l2.117-2a1.42,1.42,0,0,0,.431-1V55.369l5.341-4.109a1.36,1.36,0,0,0,.522-1.057v-.639a1.2,1.2,0,0,0-1.2-1.2Zm.133,1.837a.3.3,0,0,1-.107.213l-5.648,4.348a.306.306,0,0,0-.107.213v6.782a.355.355,0,0,1-.1.224l-2.119,2-.053.029c-.027,0-.043-.024-.043-.069V54.98a.3.3,0,0,0-.1-.216L51.45,50.206a.32.32,0,0,1-.1-.216v-.423a.132.132,0,0,1,.133-.133l6.758-.008H58.5l6.742.008a.134.134,0,0,1,.133.133V50.2Z" transform="translate(0)" fill="#5d6360"/>
  </g>
</svg>
