<svg id="Group_1826" data-name="Group 1826" xmlns="http://www.w3.org/2000/svg" width="24.5" height="24.5" viewBox="0 0 24.5 24.5">
  <path id="Path_2693" data-name="Path 2693" d="M0,0H24.5V24.5H0Z" fill="none"/>
  <path id="Path_2694" data-name="Path 2694" d="M18.313,16.373a2.973,2.973,0,0,0-2,.786L9.033,12.923a3.342,3.342,0,0,0,.092-.715,3.342,3.342,0,0,0-.092-.715l7.2-4.2a3.056,3.056,0,1,0-.98-2.236,3.342,3.342,0,0,0,.092.715l-7.2,4.2a3.063,3.063,0,1,0,0,4.471l7.268,4.247a2.88,2.88,0,0,0-.082.664,2.981,2.981,0,1,0,2.981-2.981Z" transform="translate(0.063 0.042)" fill="#008bd3"/>
</svg>
