<svg id="Group_1637" data-name="Group 1637" xmlns="http://www.w3.org/2000/svg" width="34.5" height="34.5" viewBox="0 0 34.5 34.5">
  <path id="Path_2693" data-name="Path 2693" d="M0,0H34.5V34.5H0Z" fill="none"/>
  <path id="Path_2694" data-name="Path 2694" d="M24.563,22.24a4.186,4.186,0,0,0-2.817,1.107L11.5,17.381a4.706,4.706,0,0,0,.129-1.006,4.706,4.706,0,0,0-.129-1.006L21.63,9.461a4.3,4.3,0,1,0-1.38-3.148,4.706,4.706,0,0,0,.129,1.006L10.245,13.227a4.313,4.313,0,1,0,0,6.3L20.48,25.5a4.055,4.055,0,0,0-.115.934,4.2,4.2,0,1,0,4.2-4.2Z" transform="translate(1.313 0.875)" fill="#fff"/>
</svg>
