<svg xmlns="http://www.w3.org/2000/svg" width="113.516" height="58.333" viewBox="0 0 113.516 58.333">
  <g id="Group_1577" data-name="Group 1577" transform="translate(-269.689 -403.478)">
    <path id="Path_996" data-name="Path 996" d="M383.2,560.51c-.915.031-1.83.065-2.745.091-3.405.1-6.812.174-10.217.294s-6.808.269-10.211.427q-3.629.17-7.254.4c-2.338.154-4.673.339-7.007.54-2.236.192-4.471.4-6.7.642-2.309.252-4.617.518-6.915.848-2.921.418-5.836.883-8.747,1.371-4.716.791-9.39,1.792-14.039,2.91a278.743,278.743,0,0,0-31.659,9.8,18.287,18.287,0,0,1-4.8,1.19,5.1,5.1,0,0,1-2.044-.187,1.471,1.471,0,0,1-.97-2.229,4.651,4.651,0,0,1,1.3-1.589,11.615,11.615,0,0,1,3.879-2.081q8.68-2.887,17.5-5.307c6.361-1.731,12.771-3.26,19.255-4.445,3.986-.728,7.99-1.365,12-1.941,3.232-.464,6.482-.824,9.733-1.14,2.9-.282,5.809-.468,8.716-.651,5.9-.371,11.806-.526,17.714-.406,4.311.088,8.62.276,12.929.454,2.853.118,5.691.439,8.526.768.584.068,1.17.119,1.755.178Z" transform="translate(0 -117.244)" fill="#008bd3"/>
    <path id="Path_997" data-name="Path 997" d="M516.336,445.919c-.164.22-.243.306-.3.4a5.8,5.8,0,0,1-3.9,2.813,12.293,12.293,0,0,1-4.807.2,4.419,4.419,0,0,1-4.022-4.377,21.486,21.486,0,0,1,.275-4.293c.342-2.692.7-5.382,1.016-8.077a9.617,9.617,0,0,1,.762-2.955c.289-.625.58-1.249.885-1.866a2.015,2.015,0,0,1,1.4-1.165.8.8,0,0,1,1.009.5,3.1,3.1,0,0,1,.185,1.261c-.235,2.15-.505,4.3-.792,6.441-.346,2.592-.74,5.179-1.067,7.773a6.237,6.237,0,0,0,.079,1.818,2.083,2.083,0,0,0,1.584,1.733,4.5,4.5,0,0,0,5.1-1.779,3.151,3.151,0,0,0,.391-.789c.251-.7.462-1.422.718-2.123a11.68,11.68,0,0,1,.552-1.236,1.486,1.486,0,0,1,.818-.732,1.307,1.307,0,0,1,1.949.879,7.154,7.154,0,0,1,.231,1.447,7.621,7.621,0,0,0,.6,2.691,2.485,2.485,0,0,0,1,1.125,5.207,5.207,0,0,0,2.993.737,22.266,22.266,0,0,0,13.753-5.219,18.519,18.519,0,0,0,4.632-5.982,10.559,10.559,0,0,1,.578-1.028,2.919,2.919,0,0,1,.546-.614.691.691,0,0,1,1.086.086,2.541,2.541,0,0,1,.659,1.67,8.331,8.331,0,0,1-.159,1.812,8.462,8.462,0,0,1-1.238,2.85,20.847,20.847,0,0,1-10.171,8.011,24.143,24.143,0,0,1-8.43,1.535,16.887,16.887,0,0,1-4.058-.231,5.463,5.463,0,0,1-2.124-.839,3.517,3.517,0,0,1-1.379-1.792A4.8,4.8,0,0,0,516.336,445.919Z" transform="translate(-176.082 -17.412)" fill="#008bd3"/>
    <path id="Path_998" data-name="Path 998" d="M288.145,469.724A39.338,39.338,0,0,0,300.061,468a26.812,26.812,0,0,0,5.426-2.435c2.546-1.533,5.069-3.1,7.463-4.869.617-.455,1.2-.964,1.821-1.409a4.384,4.384,0,0,1,1.136-.6.687.687,0,0,1,.991.663,4.639,4.639,0,0,1-.295,1.969,1.433,1.433,0,0,1-.417.483,36.216,36.216,0,0,1-4.3,3.4c-2.075,1.431-4.189,2.8-6.371,4.056a34.728,34.728,0,0,1-8.034,3.2,32.755,32.755,0,0,1-7.369,1.278,29.281,29.281,0,0,1-10.5-1.143,10.419,10.419,0,0,1-5.572-4.069,8.934,8.934,0,0,1-.726-9.146,7.712,7.712,0,0,1,3.092-3.7,4.512,4.512,0,0,1,.845-.415c.48-.161.726.028.717.526a2.231,2.231,0,0,1-.486,1.42,7.108,7.108,0,0,0-1.625,4.583,6.549,6.549,0,0,0,4.162,6.416,16.437,16.437,0,0,0,5.123,1.308C286.326,469.646,287.528,469.684,288.145,469.724Z" transform="translate(-2.031 -38.999)" fill="#008bd3"/>
    <path id="Path_999" data-name="Path 999" d="M680.471,419.556a62,62,0,0,1-.612,8.583,21.768,21.768,0,0,1-3.213,8.853,6.4,6.4,0,0,1-3.919,2.916,1.079,1.079,0,0,1-.936-.327.747.747,0,0,1,.058-.779c.551-.953,1.136-1.89,1.615-2.878a30.174,30.174,0,0,0,2.4-7.934,56.991,56.991,0,0,0,.74-6.5c.133-2.119.282-4.237.425-6.356a.8.8,0,0,1,.818-.806,2.331,2.331,0,0,1,2.617,2.336C680.511,417.626,680.471,418.592,680.471,419.556Z" transform="translate(-303.045 -8.173)" fill="#008bd3"/>
    <path id="Path_1000" data-name="Path 1000" d="M424.657,503.814a5.624,5.624,0,0,1-.912-.2.764.764,0,0,1-.479-1.1,3.273,3.273,0,0,1,.7-1.071,14.981,14.981,0,0,1,1.881-1.511,46.437,46.437,0,0,0,4.261-3.067,20.864,20.864,0,0,0,4.715-6c.465-.844.942-1.682,1.414-2.523a2.435,2.435,0,0,1,1.611-1.19,1.154,1.154,0,0,1,1.389.617,1.8,1.8,0,0,1,.173,1.42,16.931,16.931,0,0,1-2.569,5.151,31.777,31.777,0,0,1-8.406,8.03,7.579,7.579,0,0,1-3.536,1.38l-.235.021Z" transform="translate(-115.704 -63.041)" fill="#008bd3"/>
    <path id="Path_1001" data-name="Path 1001" d="M337.115,409.16a8.167,8.167,0,0,1,3.587.622,4.6,4.6,0,0,1,.918.52.7.7,0,0,1-.086,1.28,3.907,3.907,0,0,1-1.342.394c-.819.093-1.648.092-2.472.143-.8.049-1.611.079-2.409.18a8.359,8.359,0,0,0-4.219,1.832,2.367,2.367,0,0,1-2.174.385,1.246,1.246,0,0,1-.817-1.9,3.836,3.836,0,0,1,.978-1.079,11.845,11.845,0,0,1,4.546-2.013A14.664,14.664,0,0,1,337.115,409.16Z" transform="translate(-43.884 -4.281)" fill="#008bd3"/>
    <path id="Path_1002" data-name="Path 1002" d="M548.277,403.478a8.135,8.135,0,0,1,3.234.573,4.285,4.285,0,0,1,.869.485.659.659,0,0,1-.12,1.216,2.9,2.9,0,0,1-1.007.3c-.742.076-1.492.075-2.236.133-.959.075-1.923.126-2.871.277a7.335,7.335,0,0,0-3.385,1.581,2.166,2.166,0,0,1-1.954.347,1.138,1.138,0,0,1-.826-1.556,2.419,2.419,0,0,1,.917-1.126,10.38,10.38,0,0,1,2.59-1.387A14.118,14.118,0,0,1,548.277,403.478Z" transform="translate(-203.691 0)" fill="#008bd3"/>
  </g>
</svg>
