<svg xmlns="http://www.w3.org/2000/svg" width="19.273" height="25.742" viewBox="0 0 19.273 25.742">
  <path id="Path_34" data-name="Path 34" d="M251.762,118.947a9.847,9.847,0,0,0-7.6-7.8,5.256,5.256,0,0,0-1.085-.183,8.811,8.811,0,0,0-1.481-.015,4.7,4.7,0,0,0-.837.119,9.445,9.445,0,0,0-7.181,5.339,8.152,8.152,0,0,0-.426,6.78,26.914,26.914,0,0,0,2.516,4.844,69.007,69.007,0,0,0,5.5,7.384c.347.416.7.822,1.075,1.253.1-.109.178-.193.252-.277a76.762,76.762,0,0,0,4.809-6.087,36.819,36.819,0,0,0,3.665-6.161A8.684,8.684,0,0,0,251.762,118.947Zm-9.519,6.151a5.391,5.391,0,0,1-5.383-5.116c0-.089,0-.178,0-.272s0-.183,0-.277a5.391,5.391,0,0,1,10.767,0c0,.094.01.183.01.277s0,.183-.01.272A5.387,5.387,0,0,1,242.243,125.1Z" transform="translate(-232.608 -110.924)" fill="#008bd3"/>
</svg>
