<svg xmlns="http://www.w3.org/2000/svg" width="17.101" height="14.275" viewBox="0 0 17.101 14.275">
  <g id="noun_ad_3116099" transform="translate(-1.035 -9.212)">
    <g id="Group_1853" data-name="Group 1853" transform="translate(1.035 9.212)">
      <path id="Path_2735" data-name="Path 2735" d="M76.635,9.212c-1.135,0-1.834,2.109-2.059,4.6a.3.3,0,0,0-.007.079c-.05.567-.075,1.156-.075,1.741s.025,1.171.075,1.738a.163.163,0,0,0,0,.039c.221,2.512.921,4.646,2.062,4.646,1.407,0,2.141-3.233,2.141-6.424S78.042,9.212,76.635,9.212ZM75.3,17.627a20.522,20.522,0,0,1,0-3.986,2.141,2.141,0,0,1,0,3.986Z" transform="translate(-61.676 -9.212)" fill="#02afee"/>
      <path id="Path_2736" data-name="Path 2736" d="M19.968,19.709c-.05-.582-.075-1.178-.075-1.777s.025-1.2.075-1.773a.872.872,0,0,1,.014-.15,10.659,10.659,0,0,1,1.028-4.015l-10.824,3.1a0,0,0,0,0,0,0c-.939.168-.967,2.555-.967,2.837s.029,2.669.967,2.838a0,0,0,0,0,0,0l2.24.641v2.041a1.362,1.362,0,0,0,.945,1.253l3.624,1.035a1,1,0,0,0,.278.04.854.854,0,0,0,.519-.169.9.9,0,0,0,.344-.731V23.048l2.874.823A10.817,10.817,0,0,1,19.975,19.8C19.971,19.766,19.968,19.735,19.968,19.709Zm-2.546,5.173a.159.159,0,0,1-.231.174l-3.623-1.035a.653.653,0,0,1-.428-.567V21.618l4.282,1.226Z" transform="translate(-7.788 -11.509)" fill="#02afee"/>
      <path id="Path_2737" data-name="Path 2737" d="M1.913,36.1a2.142,2.142,0,0,0,0,3.462,8.255,8.255,0,0,1-.168-1.731A8.462,8.462,0,0,1,1.913,36.1Z" transform="translate(-1.035 -31.412)" fill="#02afee"/>
    </g>
  </g>
</svg>
