<svg xmlns="http://www.w3.org/2000/svg" xmlns:xlink="http://www.w3.org/1999/xlink" width="141" height="38" viewBox="0 0 141 38">
  <defs>
    <linearGradient id="linear-gradient" x1="0.018" y1="0.933" x2="0.987" y2="0.087" gradientUnits="objectBoundingBox">
      <stop offset="0" stop-color="#ffcd52"/>
      <stop offset="1" stop-color="#cb39a1"/>
    </linearGradient>
  </defs>
  <g id="Group_1799" data-name="Group 1799" transform="translate(-98 -2529.905)">
    <rect id="Rectangle_2420" data-name="Rectangle 2420" width="141" height="38" rx="10" transform="translate(98 2529.905)" fill="url(#linear-gradient)"/>
    <text id="اینستاگرام_استارت" data-name="اینستاگرام استارت" transform="translate(115 2551.905)" fill="#fff" font-size="11" font-family="IRANSansFaNum-Medium, IRANSansFaNum" font-weight="500"><tspan x="0" y="0">اینستاگرام استارت</tspan></text>
    <path id="Path_2720" data-name="Path 2720" d="M19.848,6.556a6.938,6.938,0,0,0-.439-2.295,4.634,4.634,0,0,0-1.091-1.674A4.634,4.634,0,0,0,16.644,1.5a6.938,6.938,0,0,0-2.294-.439C13.341,1.011,13.019,1,10.453,1s-2.888.011-3.9.057A6.938,6.938,0,0,0,4.261,1.5,4.634,4.634,0,0,0,2.586,2.587,4.634,4.634,0,0,0,1.495,4.261a6.938,6.938,0,0,0-.439,2.294C1.011,7.564,1,7.886,1,10.453s.011,2.888.057,3.9A6.938,6.938,0,0,0,1.5,16.644a4.634,4.634,0,0,0,1.091,1.674,4.633,4.633,0,0,0,1.674,1.091,6.938,6.938,0,0,0,2.294.439c1.009.046,1.331.057,3.9.057s2.888-.011,3.9-.057a6.938,6.938,0,0,0,2.295-.439,4.833,4.833,0,0,0,2.765-2.765,6.938,6.938,0,0,0,.439-2.294c.046-1.009.057-1.331.057-3.9S19.895,7.564,19.848,6.556Zm-1.7,7.716a5.228,5.228,0,0,1-.326,1.754,3.13,3.13,0,0,1-1.794,1.795,5.229,5.229,0,0,1-1.755.326c-1,.045-1.3.055-3.82.055s-2.823-.009-3.82-.055a5.229,5.229,0,0,1-1.754-.326,2.928,2.928,0,0,1-1.088-.707,2.928,2.928,0,0,1-.707-1.087,5.228,5.228,0,0,1-.326-1.755c-.045-1-.055-1.3-.055-3.82s.009-2.823.055-3.82a5.229,5.229,0,0,1,.326-1.754,2.928,2.928,0,0,1,.707-1.088,2.928,2.928,0,0,1,1.087-.707,5.229,5.229,0,0,1,1.755-.326c1-.045,1.3-.055,3.82-.055s2.823.009,3.82.055a5.229,5.229,0,0,1,1.754.326,2.928,2.928,0,0,1,1.088.707,2.928,2.928,0,0,1,.707,1.087,5.229,5.229,0,0,1,.326,1.755c.045,1,.055,1.3.055,3.82S18.192,13.276,18.147,14.272ZM10.453,5.6a4.854,4.854,0,1,0,4.854,4.854A4.854,4.854,0,0,0,10.453,5.6Zm0,8.005A3.151,3.151,0,1,1,13.6,10.453,3.151,3.151,0,0,1,10.453,13.6Zm6.18-8.2A1.134,1.134,0,1,1,15.5,4.273,1.134,1.134,0,0,1,16.632,5.407Z" transform="translate(202.553 2538.452)" fill="#fff"/>
  </g>
</svg>
