<svg xmlns="http://www.w3.org/2000/svg" width="30.547" height="26.729" viewBox="0 0 30.547 26.729">
  <g id="store" transform="translate(0 -32)">
    <g id="Group_1689" data-name="Group 1689" transform="translate(0 32)">
      <g id="Group_1688" data-name="Group 1688" transform="translate(0 0)">
        <path id="Path_2700" data-name="Path 2700" d="M30.518,40.36l-1.728-6.915A1.908,1.908,0,0,0,26.939,32H3.61a1.912,1.912,0,0,0-1.854,1.445L.029,40.36A.934.934,0,0,0,0,40.591a4.664,4.664,0,0,0,4.534,4.773,4.455,4.455,0,0,0,3.58-1.846,4.394,4.394,0,0,0,7.159,0,4.394,4.394,0,0,0,7.159,0,4.452,4.452,0,0,0,3.58,1.846,4.664,4.664,0,0,0,4.534-4.773A.934.934,0,0,0,30.518,40.36Z" transform="translate(0 -32)" fill="#ffc300"/>
      </g>
    </g>
    <g id="Group_1691" data-name="Group 1691" transform="translate(1.909 46.151)">
      <g id="Group_1690" data-name="Group 1690" transform="translate(0 0)">
        <path id="Path_2701" data-name="Path 2701" d="M56.1,270.307a6.246,6.246,0,0,1-3.58-1.123,6.425,6.425,0,0,1-7.159,0,6.425,6.425,0,0,1-7.159,0,6.2,6.2,0,0,1-6.2.529v10.14a1.91,1.91,0,0,0,1.909,1.909h7.637v-7.637h7.637v7.637h7.637a1.91,1.91,0,0,0,1.909-1.909v-10.14A6.194,6.194,0,0,1,56.1,270.307Z" transform="translate(-32 -269.184)" fill="#ffc300"/>
      </g>
    </g>
  </g>
</svg>
