<svg xmlns="http://www.w3.org/2000/svg" width="57.026" height="42.769" viewBox="0 0 57.026 42.769">
  <path id="Path_1241" data-name="Path 1241" d="M53.462,13.128H46.334s-2.06,0-3.564-3.564C42,7.75,41.173,6,39.205,6H24.949c-1.967,0-2.823,1.739-3.564,3.564-1.447,3.564-3.564,3.564-3.564,3.564H14.256a3.564,3.564,0,0,0-3.564-3.564H7.128a3.564,3.564,0,0,0-3.564,3.564A3.564,3.564,0,0,0,0,16.692v7.128H19.8a14.139,14.139,0,0,1,24.557,0h12.67V16.692A3.564,3.564,0,0,0,53.462,13.128ZM12.474,20.256H5.346a1.782,1.782,0,1,1,0-3.564h7.128a1.782,1.782,0,1,1,0,3.564Zm8.91,10.692A10.692,10.692,0,1,0,32.077,20.256,10.692,10.692,0,0,0,21.385,30.949Zm24.949,0a14.258,14.258,0,1,1-28.01-3.564H0V45.205a3.564,3.564,0,0,0,3.564,3.564h49.9a3.564,3.564,0,0,0,3.564-3.564V27.385H45.831A14.175,14.175,0,0,1,46.334,30.949Z" transform="translate(0 -6)" fill="#a7a7a7"/>
</svg>
