<svg xmlns="http://www.w3.org/2000/svg" width="15.333" height="13.417" viewBox="0 0 15.333 13.417">
  <g id="store" transform="translate(0 0)">
    <g id="Group_1689" data-name="Group 1689" transform="translate(0 0)">
      <g id="Group_1688" data-name="Group 1688" transform="translate(0 0)">
        <path id="Path_2700" data-name="Path 2700" d="M15.319,36.2l-.867-3.471a.958.958,0,0,0-.93-.725H1.812a.96.96,0,0,0-.931.725L.014,36.2A.469.469,0,0,0,0,36.313a2.341,2.341,0,0,0,2.276,2.4,2.236,2.236,0,0,0,1.8-.927,2.205,2.205,0,0,0,3.594,0,2.205,2.205,0,0,0,3.594,0,2.235,2.235,0,0,0,1.8.927,2.341,2.341,0,0,0,2.276-2.4A.469.469,0,0,0,15.319,36.2Z" transform="translate(0 -32)" fill="#ffc300"/>
      </g>
    </g>
    <g id="Group_1691" data-name="Group 1691" transform="translate(0.958 7.103)">
      <g id="Group_1690" data-name="Group 1690" transform="translate(0 0)">
        <path id="Path_2701" data-name="Path 2701" d="M44.1,269.747a3.136,3.136,0,0,1-1.8-.564,3.225,3.225,0,0,1-3.594,0,3.225,3.225,0,0,1-3.594,0,3.111,3.111,0,0,1-3.115.265v5.09a.959.959,0,0,0,.958.958h3.833v-3.833h3.833V275.5h3.833a.959.959,0,0,0,.958-.958v-5.09A3.109,3.109,0,0,1,44.1,269.747Z" transform="translate(-32 -269.184)" fill="#ffc300"/>
      </g>
    </g>
  </g>
</svg>
